<svg version="1.1" viewBox="0 0 446.96 152.09" xmlns="http://www.w3.org/2000/svg"><defs><style>.f{fill:#fff;}.g{fill:url(#d);}.h{fill:url(#e);}</style><linearGradient id="d" x1="19.86" x2="92.67" y1="41.65" y2="199.71" gradientUnits="userSpaceOnUse"><stop stop-color="#1ae9bb" offset="0"/><stop stop-color="#1e23c2" offset=".75"/></linearGradient><linearGradient id="e" x1="114.27" x2="114.27" y1="51.35" y2="230.52" gradientUnits="userSpaceOnUse"><stop stop-color="#1ae9bb" offset="0"/><stop stop-color="#1e23c2" offset="1"/></linearGradient><clipPath id="clipPath252"><path d="m0 1080h1920v-1080h-1920z"/></clipPath></defs><g id="b"><g id="c"><path class="f" d="m206.95 109.94c-7.89 0-14.1-2.18-18.63-6.54s-6.8-10.88-6.8-19.55v-33.57h12.92v33.23c0 4.81 1.12 8.43 3.36 10.87 2.24 2.43 5.34 3.65 9.31 3.65s7.08-1.17 9.31-3.52c2.24-2.35 3.36-5.88 3.36-10.57v-33.66h12.92v33.15c0 4.47-0.6 8.36-1.8 11.66s-2.92 6.06-5.16 8.27-4.95 3.86-8.14 4.95-6.74 1.64-10.66 1.64z"/><path class="f" d="m421.53 49.35c7.89 0 14.1 2.18 18.63 6.54s6.8 10.88 6.8 19.55v33.56h-12.92v-33.23c0-4.81-1.12-8.43-3.36-10.87-2.24-2.43-5.34-3.65-9.31-3.65s-7.08 1.17-9.31 3.52c-2.24 2.35-3.36 5.87-3.36 10.57v33.65h-12.92v-33.15c0-4.47 0.6-8.36 1.8-11.66s2.92-6.06 5.16-8.27 4.95-3.86 8.14-4.95 6.74-1.64 10.66-1.64z"/><path class="f" d="m245.88 50.28h27.22c6.76 0 11.87 1.73 15.33 5.2 2.68 2.69 4.02 6.01 4.02 9.99v0.17c0 1.68-0.21 3.16-0.63 4.45s-0.97 2.45-1.67 3.48c-0.69 1.04-1.5 1.95-2.42 2.73s-1.9 1.46-2.96 2.01c3.4 1.29 6.07 3.04 8.02 5.24 1.95 2.21 2.92 5.27 2.92 9.19v0.17c0 2.69-0.52 5.04-1.55 7.05s-2.51 3.69-4.44 5.04c-1.93 1.34-4.24 2.35-6.95 3.02s-5.71 1.01-9 1.01h-27.9v-58.75zm24.5 23.75c2.85 0 5.12-0.49 6.8-1.47s2.52-2.56 2.52-4.74v-0.17c0-1.96-0.73-3.46-2.18-4.49-1.46-1.04-3.55-1.55-6.29-1.55h-12.75v12.42h11.92zm3.44 23.66c2.85 0 5.09-0.52 6.71-1.55s2.43-2.64 2.43-4.82v-0.17c0-1.96-0.75-3.51-2.27-4.66s-3.94-1.72-7.3-1.72h-14.94v12.92h15.36z"/><path class="f" d="M307.05,50.28h12.92v58.74h-12.92V50.28Z"/><path class="f" d="M334.66,50.28h12.92v25.68l23.83-25.68h15.61l-23.91,24.92,25,33.82h-15.52l-18.21-25.01-6.8,7.05v17.96h-12.92V50.28Z"/><rect class="f" x="404.42" y="82.43" width="32.84" height="11.41"/><path class="g" d="m25.48 33.05c-28.79 15.59-38.2 71.9-1.53 102.66 22.71 19.05 52.79 18.38 68.34 13.35 10.26-7.25 15.02-9.41 17.05-13.66-12.16-1.08-29.26-6.12-43.85-17.81-40.61-32.54-7.58-102.1-40.01-84.54z"/><path class="h" d="m82.03 2.6c33.73-13 80.71 24.36 76.54 74.15s-44.35 72.24-80.06 74.89c0 0 37.73-1.5 39.16-47.67 1.62-52.25-77.72-85.15-35.64-101.37z"/></g></g><g transform="matrix(1.0009 0 0 -.99705 -255.98 827.12)"><g clip-path="url(#clipPath252)"><g transform="translate(462.53 719.41)"><path d="m0 0c-7.888 0-14.097 2.182-18.628 6.545s-6.797 10.881-6.797 19.553v33.564h12.922v-33.23c0-4.811 1.118-8.432 3.357-10.866 2.237-2.433 5.341-3.65 9.314-3.65 3.972 0 7.076 1.174 9.314 3.523 2.237 2.35 3.357 5.875 3.357 10.575v33.648h12.922v-33.146c0-4.475-0.602-8.364-1.804-11.662-1.204-3.303-2.924-6.057-5.161-8.266-2.237-2.211-4.95-3.861-8.139-4.951-3.189-1.092-6.742-1.637-10.657-1.637" fill="#fff"/></g><g transform="translate(677.12 780)"><path d="m0 0c7.888 0 14.097-2.182 18.628-6.545s6.797-10.881 6.797-19.553v-33.564h-12.922v33.23c0 4.811-1.118 8.432-3.357 10.866-2.237 2.433-5.341 3.65-9.314 3.65-3.972 0-7.076-1.174-9.314-3.523-2.237-2.35-3.357-5.875-3.357-10.575v-33.648h-12.922v33.146c0 4.475 0.602 8.364 1.804 11.662 1.204 3.303 2.924 6.057 5.161 8.266 2.237 2.211 4.95 3.861 8.139 4.951 3.189 1.092 6.742 1.637 10.657 1.637" fill="#fff"/></g><g transform="translate(529.41 731.66)"><path d="m0 0c2.853 0 5.09 0.516 6.713 1.553 1.622 1.033 2.433 2.642 2.433 4.824v0.168c0 1.957-0.754 3.51-2.265 4.656-1.511 1.147-3.944 1.721-7.301 1.721h-14.935v-12.922zm-3.44 23.662c2.853 0 5.119 0.49 6.796 1.469 1.679 0.978 2.518 2.558 2.518 4.742v0.166c0 1.959-0.728 3.455-2.182 4.49-1.456 1.035-3.553 1.553-6.294 1.553h-12.753v-12.42zm-24.502 23.748h27.222c6.756 0 11.866-1.734 15.328-5.203 2.68-2.686 4.021-6.014 4.021-9.986v-0.166c0-1.68-0.209-3.162-0.626-4.448-0.417-1.289-0.973-2.449-1.668-3.482-0.694-1.037-1.5-1.945-2.417-2.729-0.918-0.783-1.904-1.455-2.96-2.013 3.396-1.287 6.069-3.035 8.02-5.244 1.948-2.211 2.923-5.274 2.923-9.188v-0.168c0-2.685-0.516-5.035-1.549-7.049-1.034-2.013-2.514-3.693-4.442-5.035-1.927-1.342-4.244-2.349-6.952-3.021-2.709-0.67-5.71-1.006-9.005-1.006h-27.895z" fill="#fff"/></g><path d="m562.64 779.08h12.923v-58.738h-12.923z" fill="#fff"/><g transform="translate(590.25 779.08)"><path d="m0 0h12.922v-25.678l23.831 25.678h15.607l-23.914-24.922 25.005-33.816h-15.523l-18.209 25.006-6.797-7.049v-17.957h-12.922z" fill="#fff"/></g><path d="m660.01 746.92h32.838v-11.412h-32.838z" fill="#fff"/></g></g></svg>
